<?xml version="1.0" encoding="utf-8"?>
<!-- Generator: Adobe Illustrator 24.2.1, SVG Export Plug-In . SVG Version: 6.00 Build 0)  -->
<svg version="1.1" id="Layer_1" xmlns="http://www.w3.org/2000/svg" xmlns:xlink="http://www.w3.org/1999/xlink" x="0px" y="0px"
	 viewBox="0 0 291.2 88.5" style="enable-background:new 0 0 291.2 88.5;" xml:space="preserve">
<style type="text/css">
	.st0{fill-rule:evenodd;clip-rule:evenodd;fill:#0A4E9B;}
	.st1{fill:#0A4E9B;}
</style>
<g>
	<path d="M100.2,23.1h21.7v28.1c0,3-0.8,5.8-2.3,8.4c-1.5,2.6-3.6,4.6-6.2,6.1c-2.6,1.5-5.5,2.2-8.5,2.2c-3.1,0-5.9-0.7-8.5-2.2
		c-2.6-1.5-4.7-3.5-6.2-6.1c-1.5-2.6-2.3-5.4-2.3-8.4h11.2c0,1.5,0.6,2.8,1.7,3.9s2.5,1.6,4.1,1.6c1.6,0,2.9-0.5,4.1-1.6
		c1.1-1.1,1.7-2.4,1.7-3.9v-17h-10.5V23.1z"/>
	<path d="M163.3,23l-18.3,19.7l18,24.3H149l-11.8-16l0,0v15.7h-11.2V23h11.2v11.6L147.9,23H163.3z"/>
	<path d="M198,35.1c-0.3,2.6-0.4,4.9-0.4,8.2v17c0,3.8,0.1,6,0.4,8.2H187v-2.4c0-0.3,0-1.1,0.1-1.5c-3.6,3.4-6.8,4.7-11.4,4.7
		c-3.7,0-6.6-1-8.7-3.1c-2.2-2.2-3.1-4.9-3.1-9.2V43.3c0-3.2-0.2-5.9-0.4-8.2h11.4c-0.3,2.6-0.4,4.9-0.4,8.2v11.3
		c0,2.3,0.2,3.2,0.9,4.1c0.8,1,2,1.5,3.6,1.5c3,0,6.1-2.1,8.2-5.7V43.3c0-3.1-0.1-5.4-0.4-8.2H198z"/>
	<path d="M203.7,68.6c0.3-2.6,0.4-4.9,0.4-8.6V31.5c0-4-0.1-6-0.4-8.6h11.1c-0.3,2.6-0.4,4.6-0.4,8.6v4.6c0,0.8,0,1.3-0.1,2.1
		c3.2-2.9,6.8-4.1,11.3-4.1c10,0,15.8,6.4,15.8,17.2c0,5.9-1.7,10.6-4.9,13.9c-2.9,2.9-6.6,4.3-11.4,4.3c-4.6,0-7.2-0.9-10.8-3.9
		c0,0.2,0.1,0.9,0.1,1.2v1.8H203.7z M223.2,42.4c-5,0-8.6,3.8-8.6,9.2c0,5.4,3.6,9.6,8.3,9.6c4.8,0,8-3.9,8-9.7
		C230.9,45.8,228,42.4,223.2,42.4z"/>
	<path d="M254.6,54.9c0.5,4.4,3.1,6.8,7.5,6.8c2.2,0,4.1-0.7,5.5-2c0.8-0.8,1.2-1.4,1.6-2.8l9.6,2.7c-1.3,2.9-2.1,4.1-3.6,5.7
		c-3.1,3.1-7.5,4.7-13,4.7c-5.4,0-9.6-1.5-12.7-4.7c-3.2-3.3-5-8-5-13.4c0-10.9,7-18.1,17.5-18.1c8.6,0,14.6,4.7,16.5,12.9
		c0.4,1.8,0.7,4.1,0.8,7.2c0,0.2,0,0.5,0.1,1.1H254.6z M268.9,47.3c-0.8-3.5-3.1-5.4-6.9-5.4c-3.9,0-6.3,1.8-7.2,5.4H268.9z"/>
</g>
<g>
	<path class="st0" d="M9.3,59.8c0.9,0.8,2.5,1.5,3.5,2.1l21.6,12.5c1,0.6,2.5,1.6,3.6,2v-6.3L14.8,56.6l0-26.8
		c-1.6-0.4-4.2-2.7-5.6-2.9L9.3,59.8z"/>
	<path class="st0" d="M69,59.8l-0.1-33c-1.5,0.5-3.9,2.6-5.5,3l0,26.9c-0.8,0.8-4.9,2.9-6.1,3.6L45,67.3c-5.1,3-4.8,2-4.8,4.9
		l0.1,4.2L69,59.8z"/>
	<path class="st0" d="M15.9,28c1.9-0.7,4.3-2.4,6-3.4c1.9-1.1,3.8-2.2,5.7-3.3c2.1-1.2,3.7-2.2,5.8-3.4c1.7-0.9,4.1-2.6,5.7-3.2
		l14.3,8.2c2.4,1.4,4.7,2.7,7.2,4.1c2.1,1.2,1.6,1,3.7-0.1c1-0.6,2.7-1.4,3.4-2.1C67,24.1,39.4,8.3,39.2,8.3
		C39,8.3,11.4,24,10.5,24.9L15.9,28z"/>
</g>
<path class="st1" d="M39.2,17.8L17.8,30.1v24.7l21.4,12.3l21.4-12.3V30.1L39.2,17.8z M46.6,46.8c0,1.8-0.5,3.6-1.4,5.1
	c-0.9,1.6-2.2,2.8-3.8,3.7c-1.6,0.9-3.3,1.4-5.2,1.4c-1.9,0-3.6-0.5-5.2-1.4c-1.6-0.9-2.9-2.2-3.8-3.7c-0.9-1.6-1.4-3.3-1.4-5.1h6.8
	c0,0.9,0.3,1.7,1,2.4s1.5,1,2.5,1c1,0,1.8-0.3,2.5-1c0.7-0.7,1-1.5,1-2.4V36.5h-6.4v-6.8h13.3V46.8z"/>
</svg>
