<?xml version="1.0" encoding="utf-8"?>
<!-- Generator: Adobe Illustrator 24.2.1, SVG Export Plug-In . SVG Version: 6.00 Build 0)  -->
<svg version="1.1" id="Layer_1" xmlns="http://www.w3.org/2000/svg" xmlns:xlink="http://www.w3.org/1999/xlink" x="0px" y="0px"
	 viewBox="0 0 248 164.5" style="enable-background:new 0 0 248 164.5;" xml:space="preserve">
<style type="text/css">
	.st0{fill:#FFFFFF;}
	.st1{fill-rule:evenodd;clip-rule:evenodd;fill:#FFFFFF;}
</style>
<g>
	<g>
		<path class="st0" d="M38.4,99.3h23.4v30.3c0,3.2-0.9,6.2-2.5,9c-1.6,2.8-3.9,5-6.7,6.6c-2.8,1.6-5.9,2.4-9.2,2.4
			c-3.3,0-6.4-0.8-9.2-2.4s-5.1-3.8-6.7-6.6c-1.6-2.8-2.5-5.8-2.5-9h12.1c0,1.6,0.6,3,1.8,4.2c1.2,1.2,2.7,1.7,4.4,1.7
			s3.1-0.5,4.4-1.7c1.2-1.2,1.8-2.6,1.8-4.2v-18.3H38.4C38.4,111.2,38.4,99.3,38.4,99.3z"/>
		<path class="st0" d="M106.4,99.1l-19.7,21.2l19.4,26.2h-15l-12.7-17.2l0,0v16.9H66.3V99.1h12.1v12.5L90,99.1H106.4z"/>
		<path class="st0" d="M143.7,112.1c-0.3,2.8-0.4,5.3-0.4,8.8v18.3c0,4.1,0.1,6.5,0.4,8.8H132v-2.6c0-0.3,0-1.2,0.1-1.6
			c-3.9,3.7-7.3,5.1-12.3,5.1c-4,0-7.1-1.1-9.4-3.3c-2.4-2.4-3.3-5.3-3.3-9.9v-14.9c0-3.4-0.2-6.4-0.4-8.8H119
			c-0.3,2.8-0.4,5.3-0.4,8.8V133c0,2.5,0.2,3.4,1,4.4c0.9,1.1,2.2,1.6,3.9,1.6c3.2,0,6.6-2.3,8.8-6.1v-12.2c0-3.3-0.1-5.8-0.4-8.8
			h12V112.1z"/>
		<path class="st0" d="M149.9,148.2c0.3-2.8,0.4-5.3,0.4-9.3v-30.7c0-4.3-0.1-6.5-0.4-9.3h12c-0.3,2.8-0.4,5-0.4,9.3v5
			c0,0.9,0,1.4-0.1,2.3c3.4-3.1,7.3-4.4,12.2-4.4c10.8,0,17,6.9,17,18.5c0,6.4-1.8,11.4-5.3,15c-3.1,3.1-7.1,4.6-12.3,4.6
			c-5,0-7.8-1-11.6-4.2c0,0.2,0.1,1,0.1,1.3v1.9H149.9z M170.9,120c-5.4,0-9.3,4.1-9.3,9.9c0,5.8,3.9,10.3,8.9,10.3
			c5.2,0,8.6-4.2,8.6-10.4C179.2,123.6,176.1,120,170.9,120z"/>
		<path class="st0" d="M204.7,133.4c0.5,4.7,3.3,7.3,8.1,7.3c2.4,0,4.4-0.8,5.9-2.2c0.9-0.9,1.3-1.5,1.7-3l10.3,2.9
			c-1.4,3.1-2.3,4.4-3.9,6.1c-3.3,3.3-8.1,5.1-14,5.1c-5.8,0-10.3-1.6-13.7-5.1c-3.4-3.6-5.4-8.6-5.4-14.4
			c0-11.7,7.5-19.5,18.9-19.5c9.3,0,15.7,5.1,17.8,13.9c0.4,1.9,0.8,4.4,0.9,7.8c0,0.2,0,0.5,0.1,1.2h-26.7V133.4z M220.1,125.2
			c-0.9-3.8-3.3-5.8-7.4-5.8c-4.2,0-6.8,1.9-7.8,5.8H220.1z"/>
	</g>
	<g>
		<path class="st1" d="M96.9,70.4c1,0.9,2.7,1.6,3.8,2.3l23.3,13.5c1.1,0.6,2.7,1.7,3.9,2.2v-6.8l-25-14.5V38.1
			c-1.7-0.4-4.5-2.9-6-3.1L96.9,70.4z"/>
		<path class="st1" d="M161.3,70.4l-0.1-35.5c-1.6,0.5-4.2,2.8-5.9,3.2v29c-0.9,0.9-5.3,3.1-6.6,3.9l-13.2,7.6
			c-5.5,3.2-5.2,2.2-5.2,5.3l0.1,4.5L161.3,70.4z"/>
		<path class="st1" d="M104,36c2-0.8,4.6-2.6,6.5-3.7c2-1.2,4.1-2.4,6.1-3.6c2.3-1.3,4-2.4,6.2-3.7c1.8-1,4.4-2.8,6.1-3.4l15.4,8.8
			c2.6,1.5,5.1,2.9,7.8,4.4c2.3,1.3,1.7,1.1,4-0.1c1.1-0.6,2.9-1.5,3.7-2.3c-0.9-0.8-30.6-17.8-30.8-17.8
			c-0.2,0-29.9,16.9-30.9,17.9L104,36z"/>
	</g>
	<path class="st0" d="M129.1,25.1L106,38.3v26.6l23.1,13.2l23.1-13.2V38.3L129.1,25.1z M137.1,56.4c0,1.9-0.5,3.9-1.5,5.5
		c-1,1.7-2.4,3-4.1,4s-3.6,1.5-5.6,1.5c-2,0-3.9-0.5-5.6-1.5c-1.7-1-3.1-2.4-4.1-4c-1-1.7-1.5-3.6-1.5-5.5h7.3c0,1,0.3,1.8,1.1,2.6
		c0.8,0.8,1.6,1.1,2.7,1.1s1.9-0.3,2.7-1.1c0.8-0.8,1.1-1.6,1.1-2.6V45.2h-6.7v-7.3h14.3v18.5H137.1z"/>
</g>
</svg>
